<svg width="32" height="32" viewBox="0 0 32 32" fill="none" xmlns="http://www.w3.org/2000/svg">
<path d="M21.1739 12.39L16.0006 17.5633L10.8273 12.39C10.3073 11.87 9.46725 11.87 8.94725 12.39C8.42725 12.91 8.42725 13.75 8.94725 14.27L15.0673 20.39C15.5873 20.91 16.4273 20.91 16.9473 20.39L23.0672 14.27C23.5872 13.75 23.5872 12.91 23.0672 12.39C22.5472 11.8833 21.6939 11.87 21.1739 12.39Z" fill="#0D162F"/>
<mask id="mask0_14_173" style="mask-type:luminance" maskUnits="userSpaceOnUse" x="8" y="12" width="16" height="10">
<path d="M9.88 12L16 18.1067L22.12 12L24 13.88L16 21.88L8 13.88L9.88 12Z" fill="white"/>
</mask>
<g mask="url(#mask0_14_173)">
</g>
</svg>
