<svg width="56" height="56" viewBox="0 0 56 56" fill="none" xmlns="http://www.w3.org/2000/svg">
<rect width="56" height="56" rx="28" fill="white"/>
<path d="M14.6667 38H41.3333C42.25 38 43 37.25 43 36.3333C43 35.4167 42.25 34.6667 41.3333 34.6667H14.6667C13.75 34.6667 13 35.4167 13 36.3333C13 37.25 13.75 38 14.6667 38ZM14.6667 29.6667H41.3333C42.25 29.6667 43 28.9167 43 28C43 27.0833 42.25 26.3333 41.3333 26.3333H14.6667C13.75 26.3333 13 27.0833 13 28C13 28.9167 13.75 29.6667 14.6667 29.6667ZM13 19.6667C13 20.5833 13.75 21.3333 14.6667 21.3333H41.3333C42.25 21.3333 43 20.5833 43 19.6667C43 18.75 42.25 18 41.3333 18H14.6667C13.75 18 13 18.75 13 19.6667Z" fill="#0D162F"/>
<mask id="mask0_14_124" style="mask-type:luminance" maskUnits="userSpaceOnUse" x="13" y="18" width="30" height="20">
<path fill-rule="evenodd" clip-rule="evenodd" d="M13 21.3333V18H43V21.3333H13ZM13 29.6667H43V26.3333H13V29.6667ZM13 38H43V34.6667H13V38Z" fill="white"/>
</mask>
<g mask="url(#mask0_14_124)">
</g>
</svg>
